{
  "asset": {
    "version": "2.0",
    "generator": "THREE.GLTFExporter r171"
  },
  "scenes": [
    {
      "name": "Scene",
      "nodes": [
        8,
        9
      ]
    }
  ],
  "scene": 0,
  "nodes": [
    {
      "matrix": [
        0.18479259312152863,
        0,
        0,
        0,
        0,
        0.2795121669769287,
        0,
        0,
        0,
        0,
        0.2795121669769287,
        0,
        0.000031875111744739115,
        0,
        0,
        1
      ],
      "name": "FEET",
      "extras": {
        "name": "FEET"
      },
      "mesh": 0
    },
    {
      "matrix": [
        0.22091643512248993,
        0,
        0,
        0,
        0,
        0.3180580730794999,
        -0.10245306575801537,
        0,
        0,
        0.10245306575801537,
        0.3180580730794999,
        0,
        0.000003274189339208533,
        0.10640133172273636,
        -0.034570641815662384,
        1
      ],
      "name": "SNOOT",
      "extras": {
        "name": "SNOOT"
      },
      "mesh": 1
    },
    {
      "matrix": [
        -0.5081009378469149,
        0.00266580217121015,
        0,
        0,
        -0.004032217663522452,
        -0.768539240670138,
        0,
        0,
        0,
        0,
        0.7685496807098389,
        0,
        0.000003274189339208533,
        0.05555633828043938,
        -0.001132788835093379,
        1
      ],
      "name": "HEAD",
      "extras": {
        "name": "HEAD"
      },
      "mesh": 2
    },
    {
      "matrix": [
        0.6611254215240479,
        0,
        0,
        0,
        0,
        1,
        0,
        0,
        0,
        0,
        1,
        0,
        0.0000036206179174769204,
        0.06547887623310089,
        0,
        1
      ],
      "name": "BODY",
      "extras": {
        "name": "BODY"
      },
      "mesh": 3
    },
    {
      "matrix": [
        0.7873744368553162,
        0,
        0,
        0,
        0,
        0.7873744368553162,
        0,
        0,
        0,
        0,
        0.7873744368553162,
        0,
        0,
        0.0035550687462091446,
        -0.00003188173286616802,
        1
      ],
      "name": "ears",
      "extras": {
        "name": "ears"
      },
      "mesh": 4
    },
    {
      "matrix": [
        1,
        0,
        0,
        0,
        0,
        1,
        0,
        0,
        0,
        0,
        1,
        0,
        0,
        0,
        0.0011098822578787804,
        1
      ],
      "name": "Eyes",
      "extras": {
        "name": "Eyes"
      },
      "mesh": 5
    },
    {
      "matrix": [
        0.001306892023421824,
        0,
        0,
        0,
        0,
        0.001286389982641967,
        -0.0002305809647161679,
        0,
        0,
        0.0002305809647161679,
        0.001286389982641967,
        0,
        0,
        0.027943860739469528,
        0.010607324540615082,
        1
      ],
      "name": "tAIL",
      "extras": {
        "name": "tAIL"
      },
      "mesh": 6
    },
    {
      "matrix": [
        -0.02767256088554859,
        0,
        0,
        0,
        0,
        -0.02767256088554859,
        0,
        0,
        0,
        0,
        -0.02767256088554859,
        0,
        0,
        0,
        0,
        1
      ],
      "name": "ARMS",
      "extras": {
        "name": "ARMS"
      },
      "mesh": 7
    },
    {
      "matrix": [
        5,
        0,
        0,
        0,
        0,
        5,
        0,
        0,
        0,
        0,
        5,
        0,
        0,
        0,
        0,
        1
      ],
      "name": "alphie2.glb",
      "children": [
        0,
        1,
        2,
        3,
        4,
        5,
        6,
        7
      ]
    },
    {
      "matrix": [
        1,
        0,
        0,
        0,
        0,
        1,
        0,
        0,
        0,
        0,
        1,
        0,
        1.8256937939017952,
        0.865810983860178,
        -1.4634537654591422,
        1
      ],
      "name": "SpotLight",
      "extensions": {
        "KHR_lights_punctual": {
          "light": 0
        }
      }
    }
  ],
  "bufferViews": [
    {
      "buffer": 0,
      "byteOffset": 0,
      "byteLength": 5376,
      "target": 34962,
      "byteStride": 12
    },
    {
      "buffer": 0,
      "byteOffset": 5376,
      "byteLength": 5376,
      "target": 34962,
      "byteStride": 12
    },
    {
      "buffer": 0,
      "byteOffset": 10752,
      "byteLength": 3584,
      "target": 34962,
      "byteStride": 8
    },
    {
      "buffer": 0,
      "byteOffset": 14336,
      "byteLength": 1344,
      "target": 34963
    },
    {
      "buffer": 0,
      "byteOffset": 15680,
      "byteLength": 5376,
      "target": 34962,
      "byteStride": 12
    },
    {
      "buffer": 0,
      "byteOffset": 21056,
      "byteLength": 5376,
      "target": 34962,
      "byteStride": 12
    },
    {
      "buffer": 0,
      "byteOffset": 26432,
      "byteLength": 3584,
      "target": 34962,
      "byteStride": 8
    },
    {
      "buffer": 0,
      "byteOffset": 30016,
      "byteLength": 1344,
      "target": 34963
    },
    {
      "buffer": 0,
      "byteOffset": 31360,
      "byteLength": 1920,
      "target": 34962,
      "byteStride": 12
    },
    {
      "buffer": 0,
      "byteOffset": 33280,
      "byteLength": 1920,
      "target": 34962,
      "byteStride": 12
    },
    {
      "buffer": 0,
      "byteOffset": 35200,
      "byteLength": 1280,
      "target": 34962,
      "byteStride": 8
    },
    {
      "buffer": 0,
      "byteOffset": 36480,
      "byteLength": 480,
      "target": 34963
    },
    {
      "buffer": 0,
      "byteOffset": 36960,
      "byteLength": 5400,
      "target": 34962,
      "byteStride": 12
    },
    {
      "buffer": 0,
      "byteOffset": 42360,
      "byteLength": 5400,
      "target": 34962,
      "byteStride": 12
    },
    {
      "buffer": 0,
      "byteOffset": 47760,
      "byteLength": 3600,
      "target": 34962,
      "byteStride": 8
    },
    {
      "buffer": 0,
      "byteOffset": 51360,
      "byteLength": 1556,
      "target": 34963
    },
    {
      "buffer": 0,
      "byteOffset": 52916,
      "byteLength": 3456,
      "target": 34962,
      "byteStride": 12
    },
    {
      "buffer": 0,
      "byteOffset": 56372,
      "byteLength": 3456,
      "target": 34962,
      "byteStride": 12
    },
    {
      "buffer": 0,
      "byteOffset": 59828,
      "byteLength": 2304,
      "target": 34962,
      "byteStride": 8
    },
    {
      "buffer": 0,
      "byteOffset": 62132,
      "byteLength": 864,
      "target": 34963
    },
    {
      "buffer": 0,
      "byteOffset": 62996,
      "byteLength": 4368,
      "target": 34962,
      "byteStride": 12
    },
    {
      "buffer": 0,
      "byteOffset": 67364,
      "byteLength": 4368,
      "target": 34962,
      "byteStride": 12
    },
    {
      "buffer": 0,
      "byteOffset": 71732,
      "byteLength": 2912,
      "target": 34962,
      "byteStride": 8
    },
    {
      "buffer": 0,
      "byteOffset": 74644,
      "byteLength": 1008,
      "target": 34963
    },
    {
      "buffer": 0,
      "byteOffset": 75652,
      "byteLength": 2580,
      "target": 34962,
      "byteStride": 12
    },
    {
      "buffer": 0,
      "byteOffset": 78232,
      "byteLength": 2580,
      "target": 34962,
      "byteStride": 12
    },
    {
      "buffer": 0,
      "byteOffset": 80812,
      "byteLength": 1720,
      "target": 34962,
      "byteStride": 8
    },
    {
      "buffer": 0,
      "byteOffset": 82532,
      "byteLength": 672,
      "target": 34963
    },
    {
      "buffer": 0,
      "byteOffset": 83204,
      "byteLength": 5376,
      "target": 34962,
      "byteStride": 12
    },
    {
      "buffer": 0,
      "byteOffset": 88580,
      "byteLength": 5376,
      "target": 34962,
      "byteStride": 12
    },
    {
      "buffer": 0,
      "byteOffset": 93956,
      "byteLength": 3584,
      "target": 34962,
      "byteStride": 8
    },
    {
      "buffer": 0,
      "byteOffset": 97540,
      "byteLength": 1344,
      "target": 34963
    }
  ],
  "buffers": [
    {
      "byteLength": 98884,
      "uri": "data:application/octet-stream;base64,"
    }
  ],
  "accessors": [
    {
      "bufferView": 0,
      "componentType": 5126,
      "count": 448,
      "max": [
        0.14687612652778625,
        0.10234928131103516,
        0.009695503860712051
      ],
      "min": [
        -0.14687611162662506,
        -0.003258507000282407,
        -0.11087855696678162
      ],
      "type": "VEC3"
    },
    {
      "bufferView": 1,
      "componentType": 5126,
      "count": 448,
      "max": [
        0.9530776143074036,
        0.9948168396949768,
        0.947161853313446
      ],
      "min": [
        -0.9530776143074036,
        -0.9883450865745544,
        -0.9484386444091797
      ],
      "type": "VEC3"
    },
    {
      "bufferView": 2,
      "componentType": 5126,
      "count": 448,
      "max": [
        1.0000001192092896,
        1
      ],
      "min": [
        8.241799603903033e-11,
        0.18144327402114868
      ],
      "type": "VEC2"
    },
    {
      "bufferView": 3,
      "componentType": 5123,
      "count": 672,
      "max": [
        447
      ],
      "min": [
        0
      ],
      "type": "SCALAR"
    },
    {
      "bufferView": 4,
      "componentType": 5126,
      "count": 448,
      "max": [
        0.08859191089868546,
        -0.04606737568974495,
        0.05672445148229599
      ],
      "min": [
        -0.08832193166017532,
        -0.11508774757385254,
        -0.059843920171260834
      ],
      "type": "VEC3"
    },
    {
      "bufferView": 5,
      "componentType": 5126,
      "count": 448,
      "max": [
        0.8612862229347229,
        0.9983640313148499,
        0.9755759239196777
      ],
      "min": [
        -0.8631044626235962,
        -0.9880245923995972,
        -0.9904855489730835
      ],
      "type": "VEC3"
    },
    {
      "bufferView": 6,
      "componentType": 5126,
      "count": 448,
      "max": [
        0.8750001192092896,
        1
      ],
      "min": [
        0.125,
        -1.1920928955078125e-7
      ],
      "type": "VEC2"
    },
    {
      "bufferView": 7,
      "componentType": 5123,
      "count": 672,
      "max": [
        447
      ],
      "min": [
        0
      ],
      "type": "SCALAR"
    },
    {
      "bufferView": 8,
      "componentType": 5126,
      "count": 160,
      "max": [
        0.05977993458509445,
        -0.017599044367671013,
        0.01507300790399313
      ],
      "min": [
        -0.05933137983083725,
        -0.0717245563864708,
        -0.04161227494478226
      ],
      "type": "VEC3"
    },
    {
      "bufferView": 9,
      "componentType": 5126,
      "count": 160,
      "max": [
        0.77243572473526,
        0.9809905290603638,
        0.9719114899635315
      ],
      "min": [
        -0.7742974162101746,
        -0.9968308806419373,
        -0.9405625462532043
      ],
      "type": "VEC3"
    },
    {
      "bufferView": 10,
      "componentType": 5126,
      "count": 160,
      "max": [
        0.8750001192092896,
        1
      ],
      "min": [
        0.1250000149011612,
        -1.1920928955078125e-7
      ],
      "type": "VEC2"
    },
    {
      "bufferView": 11,
      "componentType": 5123,
      "count": 240,
      "max": [
        159
      ],
      "min": [
        0
      ],
      "type": "SCALAR"
    },
    {
      "bufferView": 12,
      "componentType": 5126,
      "count": 450,
      "max": [
        0.045350100845098495,
        0.007849756628274918,
        0.009995616972446442
      ],
      "min": [
        -0.044094063341617584,
        -0.056320711970329285,
        -0.04307015240192413
      ],
      "type": "VEC3"
    },
    {
      "bufferView": 13,
      "componentType": 5126,
      "count": 450,
      "max": [
        0.9747136235237122,
        1,
        0.9942489266395569
      ],
      "min": [
        -0.9889848232269287,
        -1,
        -0.9560397267341614
      ],
      "type": "VEC3"
    },
    {
      "bufferView": 14,
      "componentType": 5126,
      "count": 450,
      "max": [
        1,
        1
      ],
      "min": [
        0,
        0.006604671478271484
      ],
      "type": "VEC2"
    },
    {
      "bufferView": 15,
      "componentType": 5123,
      "count": 777,
      "max": [
        449
      ],
      "min": [
        0
      ],
      "type": "SCALAR"
    },
    {
      "bufferView": 16,
      "componentType": 5126,
      "count": 288,
      "max": [
        0.05537710338830948,
        0.13687081634998322,
        0.011990642175078392
      ],
      "min": [
        -0.05537710338830948,
        0.09905868023633957,
        -0.02559700235724449
      ],
      "type": "VEC3"
    },
    {
      "bufferView": 17,
      "componentType": 5126,
      "count": 288,
      "max": [
        0.9769106507301331,
        0.9694328904151917,
        0.7522719502449036
      ],
      "min": [
        -0.9769106507301331,
        -0.9920762181282043,
        -0.9291121363639832
      ],
      "type": "VEC3"
    },
    {
      "bufferView": 18,
      "componentType": 5126,
      "count": 288,
      "max": [
        1.0000001192092896,
        1
      ],
      "min": [
        -2.5545787707415002e-8,
        0.1520909070968628
      ],
      "type": "VEC2"
    },
    {
      "bufferView": 19,
      "componentType": 5123,
      "count": 432,
      "max": [
        287
      ],
      "min": [
        0
      ],
      "type": "SCALAR"
    },
    {
      "bufferView": 20,
      "componentType": 5126,
      "count": 364,
      "max": [
        0.02561812289059162,
        0.10312364250421524,
        -0.020582789555191994
      ],
      "min": [
        -0.02561812289059162,
        0.08402683585882187,
        -0.03732537105679512
      ],
      "type": "VEC3"
    },
    {
      "bufferView": 21,
      "componentType": 5126,
      "count": 364,
      "max": [
        0.944080650806427,
        0.9832751154899597,
        0.9928235411643982
      ],
      "min": [
        -0.944080650806427,
        -0.9844399094581604,
        -0.9953252077102661
      ],
      "type": "VEC3"
    },
    {
      "bufferView": 22,
      "componentType": 5126,
      "count": 364,
      "max": [
        1,
        1
      ],
      "min": [
        0,
        0
      ],
      "type": "VEC2"
    },
    {
      "bufferView": 23,
      "componentType": 5123,
      "count": 504,
      "max": [
        363
      ],
      "min": [
        0
      ],
      "type": "SCALAR"
    },
    {
      "bufferView": 24,
      "componentType": 5126,
      "count": 215,
      "max": [
        8.54959774017334,
        18.344575881958008,
        32.403282165527344
      ],
      "min": [
        -8.667108535766602,
        -4.516120910644531,
        -2.603219509124756
      ],
      "type": "VEC3"
    },
    {
      "bufferView": 25,
      "componentType": 5126,
      "count": 215,
      "max": [
        0.9662205576896667,
        0.8856619596481323,
        1
      ],
      "min": [
        -0.9657862782478333,
        -0.9921245574951172,
        -1
      ],
      "type": "VEC3"
    },
    {
      "bufferView": 26,
      "componentType": 5126,
      "count": 215,
      "max": [
        0.8750000596046448,
        1
      ],
      "min": [
        0.125,
        0
      ],
      "type": "VEC2"
    },
    {
      "bufferView": 27,
      "componentType": 5123,
      "count": 336,
      "max": [
        214
      ],
      "min": [
        0
      ],
      "type": "SCALAR"
    },
    {
      "bufferView": 28,
      "componentType": 5126,
      "count": 448,
      "max": [
        1.6803247928619385,
        -0.9720028042793274,
        1.0188217163085938
      ],
      "min": [
        -1.6803247928619385,
        -2.6734530925750732,
        0.020834483206272125
      ],
      "type": "VEC3"
    },
    {
      "bufferView": 29,
      "componentType": 5126,
      "count": 448,
      "max": [
        0.9504650235176086,
        0.9068581461906433,
        0.9978581666946411
      ],
      "min": [
        -0.9504650235176086,
        -0.9754217863082886,
        -0.9988132119178772
      ],
      "type": "VEC3"
    },
    {
      "bufferView": 30,
      "componentType": 5126,
      "count": 448,
      "max": [
        0.8750001192092896,
        1
      ],
      "min": [
        0.125,
        -1.1920928955078125e-7
      ],
      "type": "VEC2"
    },
    {
      "bufferView": 31,
      "componentType": 5123,
      "count": 672,
      "max": [
        447
      ],
      "min": [
        0
      ],
      "type": "SCALAR"
    }
  ],
  "materials": [
    {
      "pbrMetallicRoughness": {
        "metallicFactor": 0,
        "roughnessFactor": 1,
        "baseColorTexture": {
          "index": 0,
          "texCoord": 0
        }
      },
      "doubleSided": true,
      "name": "FEET"
    },
    {
      "pbrMetallicRoughness": {
        "metallicFactor": 0,
        "roughnessFactor": 1,
        "baseColorTexture": {
          "index": 1,
          "texCoord": 0
        }
      },
      "doubleSided": true,
      "name": "bODY"
    },
    {
      "pbrMetallicRoughness": {
        "metallicFactor": 0,
        "roughnessFactor": 1,
        "baseColorTexture": {
          "index": 2,
          "texCoord": 0
        }
      },
      "doubleSided": true,
      "name": "Material.003"
    },
    {
      "pbrMetallicRoughness": {
        "metallicFactor": 0,
        "roughnessFactor": 1,
        "baseColorTexture": {
          "index": 3,
          "texCoord": 0
        }
      },
      "doubleSided": true,
      "name": "bODY"
    },
    {
      "pbrMetallicRoughness": {
        "metallicFactor": 0,
        "roughnessFactor": 0.5,
        "baseColorTexture": {
          "index": 4,
          "texCoord": 0
        }
      },
      "doubleSided": true,
      "name": "ears"
    },
    {
      "pbrMetallicRoughness": {
        "metallicFactor": 0,
        "roughnessFactor": 0.5,
        "baseColorTexture": {
          "index": 5,
          "texCoord": 0
        }
      },
      "doubleSided": true,
      "name": "Material.002"
    },
    {
      "pbrMetallicRoughness": {
        "metallicFactor": 0,
        "roughnessFactor": 1,
        "baseColorTexture": {
          "index": 6,
          "texCoord": 0
        }
      },
      "doubleSided": true,
      "name": "TAIL"
    },
    {
      "pbrMetallicRoughness": {
        "metallicFactor": 0,
        "roughnessFactor": 1,
        "baseColorTexture": {
          "index": 7,
          "texCoord": 0
        }
      },
      "doubleSided": true,
      "name": "arms"
    }
  ],
  "textures": [
    {
      "sampler": 0,
      "source": 0,
      "name": "FEET Base Color"
    },
    {
      "sampler": 1,
      "source": 1,
      "name": "bODY Base Color"
    },
    {
      "sampler": 2,
      "source": 2,
      "name": "Material.003 Base Color"
    },
    {
      "sampler": 3,
      "source": 3,
      "name": "SMELLYSHIRT"
    },
    {
      "sampler": 4,
      "source": 4,
      "name": "ears Base Color"
    },
    {
      "sampler": 5,
      "source": 5,
      "name": "alphieeyer"
    },
    {
      "sampler": 6,
      "source": 6,
      "name": "TAIL Base Color"
    },
    {
      "sampler": 7,
      "source": 7,
      "name": "arms Base Color"
    }
  ],
  "samplers": [
    {
      "magFilter": 9729,
      "minFilter": 9987,
      "wrapS": 10497,
      "wrapT": 10497
    },
    {
      "magFilter": 9729,
      "minFilter": 9987,
      "wrapS": 10497,
      "wrapT": 10497
    },
    {
      "magFilter": 9729,
      "minFilter": 9987,
      "wrapS": 10497,
      "wrapT": 10497
    },
    {
      "magFilter": 9729,
      "minFilter": 9987,
      "wrapS": 10497,
      "wrapT": 10497
    },
    {
      "magFilter": 9729,
      "minFilter": 9987,
      "wrapS": 10497,
      "wrapT": 10497
    },
    {
      "magFilter": 9729,
      "minFilter": 9987,
      "wrapS": 10497,
      "wrapT": 10497
    },
    {
      "magFilter": 9729,
      "minFilter": 9987,
      "wrapS": 10497,
      "wrapT": 10497
    },
    {
      "magFilter": 9729,
      "minFilter": 9987,
      "wrapS": 10497,
      "wrapT": 10497
    }
  ],
  "images": [
    {
      "mimeType": "image/png",
      "uri": "data:image/png;base64,"
    },
    {
      "mimeType": "image/png",
      "uri": "data:image/png;base64,"
    },
    {
      "mimeType": "image/png",
      "uri": "data:image/png;base64,"
    },
    {
      "mimeType": "image/png",
      "uri": "data:image/png;base64,"
    },
    {
      "mimeType": "image/png",
      "uri": "data:image/png;base64,"
    },
    {
      "mimeType": "image/png",
      "uri": "data:image/png;base64,"
    },
    {
      "mimeType": "image/png",
      "uri": "data:image/png;base64,"
    },
    {
      "mimeType": "image/png",
      "uri": "data:image/png;base64,"
    }
  ],
  "meshes": [
    {
      "primitives": [
        {
          "mode": 4,
          "attributes": {
            "POSITION": 0,
            "NORMAL": 1,
            "TEXCOORD_0": 2
          },
          "indices": 3,
          "material": 0
        }
      ]
    },
    {
      "primitives": [
        {
          "mode": 4,
          "attributes": {
            "POSITION": 4,
            "NORMAL": 5,
            "TEXCOORD_0": 6
          },
          "indices": 7,
          "material": 1
        }
      ]
    },
    {
      "primitives": [
        {
          "mode": 4,
          "attributes": {
            "POSITION": 8,
            "NORMAL": 9,
            "TEXCOORD_0": 10
          },
          "indices": 11,
          "material": 2
        }
      ]
    },
    {
      "primitives": [
        {
          "mode": 4,
          "attributes": {
            "POSITION": 12,
            "NORMAL": 13,
            "TEXCOORD_0": 14
          },
          "indices": 15,
          "material": 3
        }
      ]
    },
    {
      "primitives": [
        {
          "mode": 4,
          "attributes": {
            "POSITION": 16,
            "NORMAL": 17,
            "TEXCOORD_0": 18
          },
          "indices": 19,
          "material": 4
        }
      ]
    },
    {
      "primitives": [
        {
          "mode": 4,
          "attributes": {
            "POSITION": 20,
            "NORMAL": 21,
            "TEXCOORD_0": 22
          },
          "indices": 23,
          "material": 5
        }
      ]
    },
    {
      "primitives": [
        {
          "mode": 4,
          "attributes": {
            "POSITION": 24,
            "NORMAL": 25,
            "TEXCOORD_0": 26
          },
          "indices": 27,
          "material": 6
        }
      ]
    },
    {
      "primitives": [
        {
          "mode": 4,
          "attributes": {
            "POSITION": 28,
            "NORMAL": 29,
            "TEXCOORD_0": 30
          },
          "indices": 31,
          "material": 7
        }
      ]
    }
  ],
  "extensions": {
    "KHR_lights_punctual": {
      "lights": [
        {
          "name": "SpotLight",
          "color": [
            1,
            1,
            1
          ],
          "intensity": 500,
          "type": "spot",
          "spot": {
            "innerConeAngle": 0.274,
            "outerConeAngle": 0.274
          }
        }
      ]
    }
  },
  "extensionsUsed": [
    "KHR_lights_punctual"
  ]
}