{
	"asset":{
		"generator":"Khronos glTF Blender I/O v3.6.27",
		"version":"2.0"
	},
	"scene":0,
	"scenes":[
		{
			"name":"Scene",
			"nodes":[
				0,
				1,
				2,
				3,
				4,
				5,
				6,
				7
			]
		}
	],
	"nodes":[
		{
			"mesh":0,
			"name":"FEET",
			"scale":[
				0.18479259312152863,
				0.2795121669769287,
				0.2795121669769287
			],
			"translation":[
				3.1875111744739115e-05,
				0,
				0
			]
		},
		{
			"mesh":1,
			"name":"SNOOT",
			"rotation":[
				-0.15518300235271454,
				0,
				0,
				0.9878857731819153
			],
			"scale":[
				0.22091643512248993,
				0.3341520130634308,
				0.3341520130634308
			],
			"translation":[
				3.274189339208533e-06,
				0.10640133172273636,
				-0.034570641815662384
			]
		},
		{
			"mesh":2,
			"name":"HEAD",
			"rotation":[
				0,
				0,
				0.9999966621398926,
				0.0026232735253870487
			],
			"scale":[
				0.5081077218055725,
				0.7685495018959045,
				0.7685496807098389
			],
			"translation":[
				3.274189339208533e-06,
				0.05555633828043938,
				-0.001132788835093379
			]
		},
		{
			"mesh":3,
			"name":"BODY",
			"scale":[
				0.6611254215240479,
				1,
				1
			],
			"translation":[
				3.6206179174769204e-06,
				0.06547887623310089,
				0
			]
		},
		{
			"mesh":4,
			"name":"ears",
			"scale":[
				0.7873744368553162,
				0.7873744368553162,
				0.7873744368553162
			],
			"translation":[
				0,
				0.0035550687462091446,
				-3.188173286616802e-05
			]
		},
		{
			"mesh":5,
			"name":"Eyes",
			"translation":[
				0,
				0,
				0.0011098822578787804
			]
		},
		{
			"mesh":6,
			"name":"tAIL",
			"rotation":[
				-0.08856531977653503,
				0,
				0,
				0.9960704445838928
			],
			"scale":[
				0.001306892023421824,
				0.001306892023421824,
				0.001306892023421824
			],
			"translation":[
				0,
				0.027943860739469528,
				0.010607324540615082
			]
		},
		{
			"mesh":7,
			"name":"ARMS",
			"scale":[
				-0.02767256088554859,
				-0.02767256088554859,
				-0.02767256088554859
			]
		}
	],
	"materials":[
		{
			"doubleSided":true,
			"name":"FEET",
			"pbrMetallicRoughness":{
				"baseColorTexture":{
					"index":0
				},
				"metallicFactor":0
			}
		},
		{
			"doubleSided":true,
			"name":"bODY.001",
			"pbrMetallicRoughness":{
				"baseColorTexture":{
					"index":1
				},
				"metallicFactor":0
			}
		},
		{
			"doubleSided":true,
			"name":"Material.003",
			"pbrMetallicRoughness":{
				"baseColorTexture":{
					"index":2
				},
				"metallicFactor":0
			}
		},
		{
			"doubleSided":true,
			"name":"bODY",
			"pbrMetallicRoughness":{
				"baseColorTexture":{
					"index":3
				},
				"metallicFactor":0
			}
		},
		{
			"doubleSided":true,
			"name":"ears",
			"pbrMetallicRoughness":{
				"baseColorTexture":{
					"index":4
				},
				"metallicFactor":0,
				"roughnessFactor":0.5
			}
		},
		{
			"doubleSided":true,
			"name":"Material.002",
			"pbrMetallicRoughness":{
				"baseColorTexture":{
					"index":5
				},
				"metallicFactor":0,
				"roughnessFactor":0.5
			}
		},
		{
			"doubleSided":true,
			"name":"TAIL",
			"pbrMetallicRoughness":{
				"baseColorTexture":{
					"index":6
				},
				"metallicFactor":0
			}
		},
		{
			"doubleSided":true,
			"name":"arms",
			"pbrMetallicRoughness":{
				"baseColorTexture":{
					"index":7
				},
				"metallicFactor":0
			}
		}
	],
	"meshes":[
		{
			"name":"Mesh",
			"primitives":[
				{
					"attributes":{
						"POSITION":0,
						"NORMAL":1,
						"TEXCOORD_0":2
					},
					"indices":3,
					"material":0
				}
			]
		},
		{
			"name":"Mesh",
			"primitives":[
				{
					"attributes":{
						"POSITION":4,
						"NORMAL":5,
						"TEXCOORD_0":6
					},
					"indices":7,
					"material":1
				}
			]
		},
		{
			"name":"Mesh",
			"primitives":[
				{
					"attributes":{
						"POSITION":8,
						"NORMAL":9,
						"TEXCOORD_0":10
					},
					"indices":11,
					"material":2
				}
			]
		},
		{
			"name":"Cube.001",
			"primitives":[
				{
					"attributes":{
						"POSITION":12,
						"NORMAL":13,
						"TEXCOORD_0":14
					},
					"indices":15,
					"material":3
				}
			]
		},
		{
			"name":"Mesh",
			"primitives":[
				{
					"attributes":{
						"POSITION":16,
						"NORMAL":17,
						"TEXCOORD_0":18
					},
					"indices":19,
					"material":4
				}
			]
		},
		{
			"name":"Sphere.001",
			"primitives":[
				{
					"attributes":{
						"POSITION":20,
						"NORMAL":21,
						"TEXCOORD_0":22
					},
					"indices":23,
					"material":5
				}
			]
		},
		{
			"name":"Cube",
			"primitives":[
				{
					"attributes":{
						"POSITION":24,
						"NORMAL":25,
						"TEXCOORD_0":26
					},
					"indices":27,
					"material":6
				}
			]
		},
		{
			"name":"Mesh",
			"primitives":[
				{
					"attributes":{
						"POSITION":28,
						"NORMAL":29,
						"TEXCOORD_0":30
					},
					"indices":31,
					"material":7
				}
			]
		}
	],
	"textures":[
		{
			"sampler":0,
			"source":0
		},
		{
			"sampler":0,
			"source":1
		},
		{
			"sampler":0,
			"source":2
		},
		{
			"sampler":0,
			"source":3
		},
		{
			"sampler":0,
			"source":4
		},
		{
			"sampler":0,
			"source":5
		},
		{
			"sampler":0,
			"source":6
		},
		{
			"sampler":0,
			"source":7
		}
	],
	"images":[
		{
			"mimeType":"image/png",
			"name":"FEET Base Color",
			"uri":"FEET%20Base%20Color.png"
		},
		{
			"mimeType":"image/png",
			"name":"bODY Base Color",
			"uri":"bODY%20Base%20Color.png"
		},
		{
			"mimeType":"image/png",
			"name":"Material.003 Base Color",
			"uri":"Material_003%20Base%20Color.png"
		},
		{
			"mimeType":"image/png",
			"name":"SMELLYSHIRT",
			"uri":"SMELLYSHIRT.png"
		},
		{
			"mimeType":"image/png",
			"name":"ears Base Color",
			"uri":"ears%20Base%20Color.png"
		},
		{
			"mimeType":"image/png",
			"name":"alphieeyer",
			"uri":"alphieeyer.png"
		},
		{
			"mimeType":"image/png",
			"name":"TAIL Base Color",
			"uri":"TAIL%20Base%20Color.png"
		},
		{
			"mimeType":"image/png",
			"name":"arms Base Color",
			"uri":"arms%20Base%20Color.png"
		}
	],
	"accessors":[
		{
			"bufferView":0,
			"componentType":5126,
			"count":448,
			"max":[
				0.14687612652778625,
				0.10234928131103516,
				0.009695503860712051
			],
			"min":[
				-0.14687611162662506,
				-0.003258507000282407,
				-0.11087855696678162
			],
			"type":"VEC3"
		},
		{
			"bufferView":1,
			"componentType":5126,
			"count":448,
			"type":"VEC3"
		},
		{
			"bufferView":2,
			"componentType":5126,
			"count":448,
			"type":"VEC2"
		},
		{
			"bufferView":3,
			"componentType":5123,
			"count":672,
			"type":"SCALAR"
		},
		{
			"bufferView":4,
			"componentType":5126,
			"count":448,
			"max":[
				0.08859191089868546,
				-0.04606737568974495,
				0.05672445148229599
			],
			"min":[
				-0.08832193166017532,
				-0.11508774757385254,
				-0.059843920171260834
			],
			"type":"VEC3"
		},
		{
			"bufferView":5,
			"componentType":5126,
			"count":448,
			"type":"VEC3"
		},
		{
			"bufferView":6,
			"componentType":5126,
			"count":448,
			"type":"VEC2"
		},
		{
			"bufferView":7,
			"componentType":5123,
			"count":672,
			"type":"SCALAR"
		},
		{
			"bufferView":8,
			"componentType":5126,
			"count":160,
			"max":[
				0.05977993458509445,
				-0.017599044367671013,
				0.01507300790399313
			],
			"min":[
				-0.05933137983083725,
				-0.0717245563864708,
				-0.04161227494478226
			],
			"type":"VEC3"
		},
		{
			"bufferView":9,
			"componentType":5126,
			"count":160,
			"type":"VEC3"
		},
		{
			"bufferView":10,
			"componentType":5126,
			"count":160,
			"type":"VEC2"
		},
		{
			"bufferView":11,
			"componentType":5123,
			"count":240,
			"type":"SCALAR"
		},
		{
			"bufferView":12,
			"componentType":5126,
			"count":450,
			"max":[
				0.045350100845098495,
				0.007849756628274918,
				0.009995616972446442
			],
			"min":[
				-0.044094063341617584,
				-0.056320711970329285,
				-0.04307015240192413
			],
			"type":"VEC3"
		},
		{
			"bufferView":13,
			"componentType":5126,
			"count":450,
			"type":"VEC3"
		},
		{
			"bufferView":14,
			"componentType":5126,
			"count":450,
			"type":"VEC2"
		},
		{
			"bufferView":15,
			"componentType":5123,
			"count":777,
			"type":"SCALAR"
		},
		{
			"bufferView":16,
			"componentType":5126,
			"count":288,
			"max":[
				0.05537710338830948,
				0.13687081634998322,
				0.011990642175078392
			],
			"min":[
				-0.05537710338830948,
				0.09905868023633957,
				-0.02559700235724449
			],
			"type":"VEC3"
		},
		{
			"bufferView":17,
			"componentType":5126,
			"count":288,
			"type":"VEC3"
		},
		{
			"bufferView":18,
			"componentType":5126,
			"count":288,
			"type":"VEC2"
		},
		{
			"bufferView":19,
			"componentType":5123,
			"count":432,
			"type":"SCALAR"
		},
		{
			"bufferView":20,
			"componentType":5126,
			"count":364,
			"max":[
				0.02561812289059162,
				0.10312364250421524,
				-0.020582789555191994
			],
			"min":[
				-0.02561812289059162,
				0.08402683585882187,
				-0.03732537105679512
			],
			"type":"VEC3"
		},
		{
			"bufferView":21,
			"componentType":5126,
			"count":364,
			"type":"VEC3"
		},
		{
			"bufferView":22,
			"componentType":5126,
			"count":364,
			"type":"VEC2"
		},
		{
			"bufferView":23,
			"componentType":5123,
			"count":504,
			"type":"SCALAR"
		},
		{
			"bufferView":24,
			"componentType":5126,
			"count":215,
			"max":[
				8.54959774017334,
				18.344575881958008,
				32.403282165527344
			],
			"min":[
				-8.667108535766602,
				-4.516120910644531,
				-2.603219509124756
			],
			"type":"VEC3"
		},
		{
			"bufferView":25,
			"componentType":5126,
			"count":215,
			"type":"VEC3"
		},
		{
			"bufferView":26,
			"componentType":5126,
			"count":215,
			"type":"VEC2"
		},
		{
			"bufferView":27,
			"componentType":5123,
			"count":336,
			"type":"SCALAR"
		},
		{
			"bufferView":28,
			"componentType":5126,
			"count":448,
			"max":[
				1.6803247928619385,
				-0.9720028042793274,
				1.0188217163085938
			],
			"min":[
				-1.6803247928619385,
				-2.6734530925750732,
				0.020834483206272125
			],
			"type":"VEC3"
		},
		{
			"bufferView":29,
			"componentType":5126,
			"count":448,
			"type":"VEC3"
		},
		{
			"bufferView":30,
			"componentType":5126,
			"count":448,
			"type":"VEC2"
		},
		{
			"bufferView":31,
			"componentType":5123,
			"count":672,
			"type":"SCALAR"
		}
	],
	"bufferViews":[
		{
			"buffer":0,
			"byteLength":5376,
			"byteOffset":0,
			"target":34962
		},
		{
			"buffer":0,
			"byteLength":5376,
			"byteOffset":5376,
			"target":34962
		},
		{
			"buffer":0,
			"byteLength":3584,
			"byteOffset":10752,
			"target":34962
		},
		{
			"buffer":0,
			"byteLength":1344,
			"byteOffset":14336,
			"target":34963
		},
		{
			"buffer":0,
			"byteLength":5376,
			"byteOffset":15680,
			"target":34962
		},
		{
			"buffer":0,
			"byteLength":5376,
			"byteOffset":21056,
			"target":34962
		},
		{
			"buffer":0,
			"byteLength":3584,
			"byteOffset":26432,
			"target":34962
		},
		{
			"buffer":0,
			"byteLength":1344,
			"byteOffset":30016,
			"target":34963
		},
		{
			"buffer":0,
			"byteLength":1920,
			"byteOffset":31360,
			"target":34962
		},
		{
			"buffer":0,
			"byteLength":1920,
			"byteOffset":33280,
			"target":34962
		},
		{
			"buffer":0,
			"byteLength":1280,
			"byteOffset":35200,
			"target":34962
		},
		{
			"buffer":0,
			"byteLength":480,
			"byteOffset":36480,
			"target":34963
		},
		{
			"buffer":0,
			"byteLength":5400,
			"byteOffset":36960,
			"target":34962
		},
		{
			"buffer":0,
			"byteLength":5400,
			"byteOffset":42360,
			"target":34962
		},
		{
			"buffer":0,
			"byteLength":3600,
			"byteOffset":47760,
			"target":34962
		},
		{
			"buffer":0,
			"byteLength":1554,
			"byteOffset":51360,
			"target":34963
		},
		{
			"buffer":0,
			"byteLength":3456,
			"byteOffset":52916,
			"target":34962
		},
		{
			"buffer":0,
			"byteLength":3456,
			"byteOffset":56372,
			"target":34962
		},
		{
			"buffer":0,
			"byteLength":2304,
			"byteOffset":59828,
			"target":34962
		},
		{
			"buffer":0,
			"byteLength":864,
			"byteOffset":62132,
			"target":34963
		},
		{
			"buffer":0,
			"byteLength":4368,
			"byteOffset":62996,
			"target":34962
		},
		{
			"buffer":0,
			"byteLength":4368,
			"byteOffset":67364,
			"target":34962
		},
		{
			"buffer":0,
			"byteLength":2912,
			"byteOffset":71732,
			"target":34962
		},
		{
			"buffer":0,
			"byteLength":1008,
			"byteOffset":74644,
			"target":34963
		},
		{
			"buffer":0,
			"byteLength":2580,
			"byteOffset":75652,
			"target":34962
		},
		{
			"buffer":0,
			"byteLength":2580,
			"byteOffset":78232,
			"target":34962
		},
		{
			"buffer":0,
			"byteLength":1720,
			"byteOffset":80812,
			"target":34962
		},
		{
			"buffer":0,
			"byteLength":672,
			"byteOffset":82532,
			"target":34963
		},
		{
			"buffer":0,
			"byteLength":5376,
			"byteOffset":83204,
			"target":34962
		},
		{
			"buffer":0,
			"byteLength":5376,
			"byteOffset":88580,
			"target":34962
		},
		{
			"buffer":0,
			"byteLength":3584,
			"byteOffset":93956,
			"target":34962
		},
		{
			"buffer":0,
			"byteLength":1344,
			"byteOffset":97540,
			"target":34963
		}
	],
	"samplers":[
		{
			"magFilter":9729,
			"minFilter":9987
		}
	],
	"buffers":[
		{
			"byteLength":98884,
			"uri":"alphie2.bin"
		}
	]
}
